<?xml version="1.0" encoding="UTF-8"?>
<svg id="Layer_1" data-name="Layer 1" xmlns="http://www.w3.org/2000/svg" viewBox="0 0 664.43 602.98">
  <defs>
    <style>
      .cls-1 {
        fill: #fff;
        stroke-width: 0px;
      }
    </style>
  </defs>
  <path class="cls-1" d="M136.99,551.59c-8.4-37.36-16.36-74.4-25.17-111.23-4.75-19.84-10.96-39.34-16.49-58.99-5.89-20.95-11.86-41.87-17.58-62.86-2.58-9.45-5.83-18.7-7.88-28.32-1.28-6-6.96-9.11-11.04-13.11-18.53-18.14-37.19-36.16-55.96-54.05-3-2.86-3.37-5.6-2.37-9.32,6.26-23.41,12.4-46.85,18.56-70.28,5.87-22.33,11.71-44.66,17.58-66.99,6.16-23.45,12.3-46.91,18.55-70.34.35-1.33.33-3.03,2.1-4.08,1.93,1,2.07,3.07,2.62,4.86,6,19.67,11.94,39.37,18,59.02,2.83,9.2,6,18.29,8.79,27.5,1.04,3.42,2.96,4.35,6.26,3.81,3.76-.62,7.58-1.47,11.35-1.36,5.2.16,6.77-2.78,7.92-7.02,4.48-16.52,9.08-33,13.72-49.47,3.38-11.99,6.87-23.96,10.34-35.92.44-1.53.52-3.5,2.88-3.44,1.94.05,2.28,1.64,2.81,3.04,8.92,23.44,18.52,46.62,26.1,70.56,5.72,18.06,12.28,35.58,23.3,51.43,11.55,16.63,21.54,34.34,32.19,51.59,3.05,4.94,2.87,10.15.53,15.18-11.72,25.16-23.51,50.29-35.43,75.35-2.07,4.35-1.74,7.4,1.94,10.89,11.23,10.64,22.31,21.46,32.96,32.68,3.32,3.5,7.07,3.99,11.06,4.41,22.13,2.32,44.25,4.88,66.43,6.53,16.72,1.25,33.36,3.2,50.05,4.61,22.83,1.94,45.59,4.62,68.4,6.79,19.52,1.86,39.08,3.33,58.59,5.21,22.3,2.14,44.58,4.57,66.88,6.82,8.26.83,16.55,1.43,24.81,2.29,3.65.38,4.47-1.5,4-4.46-3.39-21.16-6.83-42.31-10.25-63.46-2.92-18.03-5.84-36.06-8.76-54.08-2.05-12.62-4.05-25.26-6.17-37.87-.9-5.33.44-9.45,4.43-13.45,18.54-18.59,36.76-37.49,55.14-56.24,5.61-5.73,9.26-5.37,14.02,1.09,4.14,5.61,8.29,11.21,12.49,16.78,4.79,6.35,4.79,10.44-.62,16.42-9.6,10.61-19.37,21.05-29.03,31.61-4.6,5.03-9.06,10.2-13.66,15.23-1.39,1.52-1.58,2.99-1.2,5,4.91,25.75,9.69,51.53,14.54,77.29,5.22,27.71,10.48,55.42,15.75,83.13,5.61,29.51,11.32,59,16.87,88.52,6.47,34.41,12.83,68.83,19.24,103.25,2.52,13.54,4.98,27.08,7.63,40.59.71,3.65-.11,5.23-4.1,5.21-22.83-.09-45.66-.01-68.49-.05-4.9,0-7.58-3.54-6.58-9.82,1.49-9.29,4.47-18.07,11.55-24.88,2.34-2.24,4.98-4.34,8.1-4.64,4.54-.44,4.6-3.13,4.02-6.29-1.98-10.78-4.02-21.55-6.14-32.31-4.18-21.18-8.53-42.32-12.59-63.52-2-10.48-1.8-10.96-12.11-10.45-32.96,1.64-65.93.75-98.9.82-81.29.16-162.59.05-243.88.05-8.87,0-8.95.03-7.23,8.45,4.98,24.37,9.57,48.81,14.03,73.28,3.9,21.37,8.5,42.61,12.75,63.92.35,1.77,1.87,3.21,1.42,5.32-1.75,1.69-4.03.99-6.08.99-21.66.06-43.33.04-64.99.03-6.58,0-8.62-1.97-8-8.6.68-7.33,2.68-14.35,6.8-20.59,2.07-3.14,4.75-5.56,8.56-6.43,5.97-1.37,7.03-2.63,5.9-8.58-1.89-9.95-4.11-19.84-6.17-29.76-4.71-22.77-9.4-45.54-14.1-68.3-.6-2.92-1.28-5.82-1.83-8.75-.42-2.22-1.68-3.08-3.87-2.91-2.59.2-2.96,2.03-2.65,3.92.88,5.41,1.9,10.79,3.01,16.16,6.14,29.76,12.32,59.5,18.47,89.26.1.47.01.98.01,1.79-13.18,2.01-16.08,12.63-18.97,23.19-1.68,6.14-1.84,12.45-1.45,18.57-1.53,1.3-3.09.99-4.55.99-14.33.03-28.66-.07-42.99.07-3.73.04-5.2-.98-5.36-5.04-.66-16.07,5.39-28.81,18.24-38.3,3.21-2.37,1.55-4.95.98-7.99M76.75,145.57c-4.48.17-8.97.04-13.38,1.2-2.71.71-4,2.25-3.69,5.02.49,4.29.96,8.58,1.59,12.85,2.08,14.12,4.35,28.21,6.27,42.36.58,4.25,2.39,5.66,6.56,5.19,7.59-.84,15.21-1.45,22.82-1.94,3.97-.26,5.7-1.84,5.21-5.99-2.17-18.46-4.25-36.93-6.28-55.41-.33-3.03-2.39-3.3-4.62-3.32-4.5-.05-8.99.04-14.48.04M139.94,177.01c-.63-7.1-1.44-14.17-3.02-21.15-1.4-6.21-5.94-2.35-8.97-2.77-3.16-.44-3.69,2.34-3.34,4.83,1.7,11.98,3.5,23.95,5.27,35.92.59,4,3.39,3.93,6.38,3.43,2.96-.49,6.32-.6,5.74-5.08-.62-4.77-1.3-9.53-2.07-15.19M132.87,240.1c-1.99-.03-4-.28-5.96-.07-9.86,1.09-19.71,2.33-29.57,3.46-2.41.28-4.96.41-4.65,3.75.31,3.25,2.95,2.63,5,2.43,11.19-1.11,22.38-2.25,33.55-3.53,3.91-.45,4.88-2.49,1.63-6.05Z"/>
  <path class="cls-1" d="M544.37,601.93c-4.26-.26-8.12.61-12.35-.69-.21-12.75,1.61-24.9,10.62-34.7,3.45-3.75,6.85-7.75,11.39-10.39,2.19-1.27,1.99-3.2,1.46-5.25-6.03-23.12-11.43-46.39-16.98-69.62-1.84-7.71-3.55-15.46-5.8-23.77,4.61-.45,8.93-1.17,13.27-1.25,10.49-.18,20.99.14,31.48-.14,3.96-.11,5.23,1.76,5.86,5.03,3.43,17.59,6.84,35.19,10.35,52.77,2.47,12.37,5.11,24.71,7.62,37.07.44,2.19,1.47,4.65-1.82,5.83-12.77,4.59-17.26,15.38-19.65,27.3-.88,4.41-1.97,9-.5,13.77,1.05,3.41-1.63,4.05-4.5,4.03-10-.06-19.99-.02-30.46-.01Z"/>
  <path class="cls-1" d="M88.6,188.15c.27,1.92.56,3.39.75,4.86.46,3.57-1.05,6.11-4.66,6.23-3.39.11-7.76,1.04-8.51-4.34-1.39-9.97-2.85-19.94-3.99-29.94-.59-5.19,1.21-7,6.27-7.4,6.2-.48,7.07.21,7.75,5.94.95,8.05,2.65,16.02,2.39,24.65Z"/>
</svg>