<?xml version="1.0" encoding="UTF-8"?>
<svg id="Layer_1" data-name="Layer 1" xmlns="http://www.w3.org/2000/svg" viewBox="0 0 735.84 735.84">
  <defs>
    <style>
      .cls-1 {
        fill: #000;
      }

      .cls-1, .cls-2 {
        stroke-width: 0px;
      }

      .cls-2 {
        fill: #fff;
      }
    </style>
  </defs>
  <circle class="cls-1" cx="367.92" cy="367.92" r="367.92"/>
  <path class="cls-2" d="M510.48,600.93c-3.23-.2-6.16.46-9.37-.52-.16-9.67,1.22-18.89,8.06-26.32,2.62-2.84,5.2-5.88,8.64-7.88,1.66-.97,1.51-2.43,1.11-3.98-4.57-17.54-8.67-35.19-12.88-52.82-1.4-5.85-2.69-11.73-4.4-18.03,3.5-.34,6.78-.89,10.07-.94,7.96-.13,15.93.11,23.88-.11,3-.08,3.96,1.33,4.45,3.82,2.6,13.35,5.19,26.7,7.85,40.03,1.87,9.38,3.88,18.74,5.78,28.12.34,1.66,1.12,3.53-1.38,4.43-9.69,3.48-13.09,11.67-14.9,20.71-.67,3.34-1.5,6.83-.38,10.45.8,2.58-1.23,3.07-3.41,3.06-7.58-.04-15.17-.01-23.11,0Z"/>
  <path class="cls-2" d="M201.41,562.74c-6.37-28.34-12.41-56.44-19.1-84.39-3.6-15.05-8.31-29.84-12.51-44.76-4.47-15.89-9-31.77-13.34-47.69-1.96-7.17-4.42-14.18-5.98-21.48-.97-4.55-5.28-6.91-8.37-9.94-14.06-13.76-28.21-27.43-42.46-41.01-2.28-2.17-2.56-4.25-1.8-7.07,4.75-17.76,9.41-35.54,14.08-53.32,4.45-16.94,8.89-33.88,13.33-50.82,4.67-17.79,9.34-35.59,14.07-53.37.27-1.01.25-2.3,1.59-3.1,1.46.76,1.57,2.33,1.99,3.69,4.55,14.93,9.06,29.87,13.66,44.78,2.15,6.98,4.55,13.88,6.67,20.86.79,2.6,2.25,3.3,4.75,2.89,2.85-.47,5.75-1.12,8.61-1.03,3.95.12,5.14-2.11,6.01-5.32,3.4-12.53,6.89-25.04,10.41-37.54,2.56-9.1,5.21-18.17,7.84-27.25.34-1.16.39-2.65,2.18-2.61,1.47.04,1.73,1.25,2.13,2.3,6.77,17.78,14.05,35.37,19.8,53.53,4.34,13.7,9.32,26.99,17.68,39.02,8.77,12.61,16.34,26.05,24.42,39.14,2.31,3.75,2.18,7.7.4,11.52-8.89,19.09-17.84,38.15-26.88,57.17-1.57,3.3-1.32,5.61,1.47,8.26,8.52,8.07,16.93,16.28,25,24.79,2.52,2.66,5.36,3.03,8.39,3.34,16.79,1.76,33.57,3.7,50.4,4.95,12.68.94,25.31,2.43,37.97,3.5,17.32,1.47,34.59,3.5,51.89,5.15,14.81,1.41,29.65,2.53,44.45,3.95,16.92,1.63,33.82,3.47,50.74,5.17,6.27.63,12.56,1.08,18.82,1.74,2.77.29,3.39-1.14,3.03-3.38-2.57-16.05-5.18-32.1-7.78-48.15-2.21-13.68-4.43-27.36-6.65-41.03-1.55-9.58-3.07-19.16-4.68-28.73-.68-4.04.33-7.17,3.36-10.2,14.07-14.1,27.89-28.44,41.83-42.67,4.26-4.34,7.03-4.08,10.64.83,3.14,4.26,6.29,8.51,9.48,12.73,3.64,4.82,3.64,7.92-.47,12.46-7.28,8.05-14.7,15.97-22.02,23.98-3.49,3.82-6.87,7.74-10.36,11.56-1.05,1.15-1.2,2.27-.91,3.79,3.72,19.54,7.35,39.1,11.03,58.64,3.96,21.03,7.95,42.05,11.95,63.07,4.26,22.39,8.59,44.76,12.8,67.15,4.91,26.1,9.73,52.22,14.6,78.33,1.91,10.27,3.78,20.55,5.79,30.8.54,2.77-.08,3.97-3.11,3.96-17.32-.07-34.64,0-51.96-.04-3.72,0-5.75-2.69-4.99-7.45,1.13-7.05,3.39-13.71,8.76-18.87,1.77-1.7,3.78-3.29,6.14-3.52,3.45-.33,3.49-2.37,3.05-4.77-1.5-8.18-3.05-16.35-4.66-24.51-3.17-16.07-6.47-32.11-9.55-48.19-1.52-7.95-1.36-8.31-9.19-7.93-25.01,1.24-50.02.57-75.03.62-61.67.12-123.35.04-185.02.04-6.73,0-6.79.02-5.48,6.41,3.77,18.49,7.26,37.03,10.65,55.6,2.96,16.21,6.45,32.33,9.67,48.5.27,1.34,1.42,2.43,1.07,4.04-1.33,1.28-3.06.75-4.61.75-16.44.04-32.87.03-49.31.03-4.99,0-6.54-1.49-6.07-6.53.52-5.56,2.04-10.89,5.16-15.62,1.57-2.38,3.61-4.21,6.49-4.88,4.53-1.04,5.34-2,4.48-6.51-1.44-7.55-3.12-15.05-4.68-22.57-3.57-17.27-7.13-34.55-10.7-51.82-.46-2.21-.97-4.42-1.39-6.64-.32-1.68-1.27-2.34-2.94-2.21-1.96.15-2.25,1.54-2.01,2.98.67,4.1,1.44,8.19,2.28,12.26,4.66,22.58,9.34,45.14,14.01,67.72.07.36,0,.74,0,1.36-10,1.53-12.2,9.58-14.39,17.6-1.27,4.66-1.4,9.44-1.1,14.09-1.16.98-2.34.75-3.45.75-10.87.02-21.75-.05-32.62.06-2.83.03-3.94-.74-4.07-3.82-.5-12.19,4.09-21.86,13.84-29.06,2.43-1.8,1.17-3.75.75-6.06M155.71,254.7c-3.4.13-6.81.03-10.15.91-2.05.54-3.04,1.71-2.8,3.81.37,3.25.73,6.51,1.21,9.75,1.58,10.71,3.3,21.41,4.76,32.13.44,3.23,1.81,4.29,4.98,3.94,5.76-.64,11.54-1.1,17.32-1.47,3.01-.2,4.32-1.39,3.95-4.54-1.65-14.01-3.22-28.02-4.77-42.04-.25-2.3-1.81-2.5-3.51-2.52-3.41-.03-6.82.03-10.98.03M203.65,278.55c-.48-5.39-1.09-10.75-2.29-16.05-1.06-4.71-4.51-1.78-6.8-2.1-2.39-.33-2.8,1.77-2.53,3.67,1.29,9.09,2.66,18.17,4,27.25.45,3.04,2.57,2.98,4.84,2.61,2.24-.37,4.8-.46,4.35-3.85-.47-3.62-.99-7.23-1.57-11.52M198.29,326.42c-1.51-.03-3.03-.22-4.52-.05-7.48.83-14.96,1.77-22.44,2.62-1.83.21-3.77.31-3.53,2.85.23,2.46,2.24,2,3.79,1.84,8.49-.84,16.98-1.7,25.46-2.67,2.96-.34,3.7-1.89,1.24-4.59Z"/>
  <path class="cls-2" d="M164.7,287.01c.2,1.46.43,2.57.57,3.69.35,2.71-.8,4.63-3.54,4.72-2.57.09-5.89.79-6.46-3.29-1.05-7.57-2.16-15.13-3.03-22.72-.45-3.94.92-5.31,4.76-5.61,4.7-.36,5.37.16,5.88,4.51.72,6.11,2.01,12.16,1.81,18.7Z"/>
</svg>