<svg version="1.1" id="Layer_1" xmlns="http://www.w3.org/2000/svg" xmlns:xlink="http://www.w3.org/1999/xlink" x="0px" y="0px"
	 width="100%" viewBox="0 0 928 768" enable-background="new 0 0 928 768" xml:space="preserve">
<path fill="#000000" opacity="1.000000" stroke="none" 
	d="
M256.768921,620.047729 
	C248.372849,582.686523 240.408661,545.649048 231.596649,508.814423 
	C226.849533,488.971222 220.637360,469.479004 215.109344,449.821930 
	C209.218796,428.875793 203.252380,407.950104 197.527130,386.958740 
	C194.949722,377.508789 191.697937,368.261963 189.647263,358.640778 
	C188.369141,352.644165 182.690903,349.531555 178.608490,345.535492 
	C160.074783,327.393707 141.419327,309.374603 122.645027,291.482025 
	C119.641708,288.619751 119.276268,285.877747 120.271019,282.160461 
	C126.534531,258.754059 132.671417,235.313736 138.832458,211.879959 
	C144.702225,189.554001 150.546082,167.221222 156.409241,144.893539 
	C162.568222,121.439461 168.713989,97.981812 174.960388,74.551010 
	C175.313934,73.224815 175.289368,71.518349 177.060394,70.470131 
	C178.987473,71.466843 179.132263,73.541405 179.679489,75.334808 
	C185.682587,95.008400 191.621933,114.701584 197.680984,134.357895 
	C200.515594,143.553680 203.684265,152.647110 206.471313,161.856598 
	C207.506989,165.278900 209.432373,166.210876 212.730026,165.663864 
	C216.491638,165.039871 220.310028,164.193344 224.077621,164.307281 
	C229.282166,164.464615 230.846573,161.529617 231.995117,157.291351 
	C236.471481,140.773102 241.080017,124.290260 245.718353,107.816483 
	C249.095276,95.822861 252.585403,83.861031 256.055328,71.893791 
	C256.498810,70.364182 256.574188,68.398758 258.930939,68.455925 
	C260.873657,68.503044 261.214142,70.097107 261.744812,71.491318 
	C270.665497,94.928467 280.261932,118.115402 287.844849,142.047684 
	C293.568451,160.111908 300.126373,177.624939 311.145172,193.481995 
	C322.698364,210.108185 332.687286,227.822113 343.339081,245.073486 
	C346.389648,250.014053 346.212372,255.224060 343.866608,260.257935 
	C332.142822,285.416473 320.354218,310.545319 308.436157,335.612244 
	C306.368256,339.961578 306.693146,343.011932 310.378510,346.504608 
	C321.607086,357.146118 332.692993,367.962250 343.337311,379.181976 
	C346.662018,382.686401 350.407837,383.170868 354.395111,383.588257 
	C376.526306,385.904907 398.644409,388.466705 420.828461,390.119232 
	C437.546204,391.364532 454.184601,393.318115 470.879761,394.733521 
	C493.707489,396.668854 516.471008,399.349274 539.279785,401.524597 
	C558.798889,403.386169 578.355164,404.859039 597.872742,406.735291 
	C620.177002,408.879425 642.453979,411.306244 664.748413,413.554504 
	C673.012146,414.387878 681.300415,414.981812 689.560364,415.848114 
	C693.214294,416.231354 694.031555,414.347778 693.558228,411.389069 
	C690.172974,390.230103 686.731750,369.080078 683.307007,347.927429 
	C680.388062,329.899017 677.469604,311.870514 674.547180,293.842712 
	C672.500671,281.218536 670.497986,268.586914 668.373657,255.975784 
	C667.476013,250.646606 668.810486,246.529465 672.800903,242.528793 
	C691.340027,223.941818 709.561340,205.038208 727.936707,186.287399 
	C733.548889,180.560471 737.200195,180.915802 741.958435,187.374878 
	C746.093872,192.988541 750.248352,198.588745 754.449158,204.153610 
	C759.242554,210.503418 759.243103,214.590988 753.826843,220.578384 
	C744.230896,231.186279 734.452637,241.629074 724.798706,252.184891 
	C720.196716,257.216919 715.741821,262.383392 711.141052,267.416565 
	C709.752197,268.936035 709.561707,270.411438 709.943604,272.416290 
	C714.849792,298.169952 719.629639,323.947601 724.485107,349.710999 
	C729.708313,377.425354 734.961792,405.134064 740.231079,432.839722 
	C745.843018,462.347321 751.549133,491.837189 757.104187,521.355469 
	C763.578857,555.760498 769.931885,590.188416 776.342834,624.605408 
	C778.864136,638.140930 781.327759,651.687866 783.975525,665.198669 
	C784.690369,668.846313 783.867859,670.428650 779.877197,670.412354 
	C757.047485,670.318848 734.217102,670.400635 711.387146,670.359497 
	C706.483337,670.350647 703.807068,666.819397 704.811951,660.536316 
	C706.298035,651.244385 709.277954,642.463318 716.359985,635.660583 
	C718.696655,633.416016 721.340210,631.320190 724.458557,631.021057 
	C729.000000,630.585571 729.055725,627.895203 728.475647,624.729614 
	C726.500061,613.947937 724.454407,603.178345 722.333923,592.424133 
	C718.158020,571.245911 713.800720,550.102783 709.746338,528.901550 
	C707.742188,518.421753 707.949768,517.943726 697.633484,518.455566 
	C664.673218,520.091064 631.700684,519.208191 598.736328,519.273010 
	C517.443909,519.432922 436.150970,519.322205 354.858246,519.324097 
	C345.991913,519.324341 345.912415,519.352173 347.631409,527.773071 
	C352.606476,552.144348 357.196503,576.585999 361.665131,601.055969 
	C365.567780,622.426636 370.167175,643.669861 374.412903,664.978516 
	C374.765594,666.748413 376.284393,668.184326 375.829468,670.300049 
	C374.074982,671.988647 371.800659,671.289551 369.754333,671.294861 
	C348.090790,671.351013 326.427002,671.333130 304.763306,671.328735 
	C298.179443,671.327393 296.140839,669.361938 296.759064,662.727051 
	C297.442291,655.394409 299.443329,648.375854 303.556549,642.135803 
	C305.624390,638.998657 308.309692,636.580750 312.113586,635.705688 
	C318.085510,634.331848 319.146790,633.074463 318.015045,627.130371 
	C316.120758,617.181152 313.900574,607.294312 311.848389,597.374756 
	C307.138489,574.608826 302.448792,551.838562 297.746368,529.071106 
	C297.143585,526.152588 296.462341,523.249329 295.913635,520.320984 
	C295.497772,518.101624 294.237549,517.242615 292.040802,517.413757 
	C289.455658,517.615051 289.077545,519.441650 289.386810,521.336304 
	C290.269226,526.742859 291.286194,532.130920 292.392731,537.496826 
	C298.528961,567.253479 304.708862,597.001038 310.859436,626.754761 
	C310.956635,627.225037 310.871582,627.732971 310.871582,628.546509 
	C297.692719,630.557800 294.794708,641.176880 291.905060,651.741455 
	C290.226166,657.879578 290.063263,664.187622 290.456299,670.313110 
	C288.928223,671.611389 287.367371,671.300903 285.906647,671.303589 
	C271.575348,671.329895 257.243073,671.234131 242.913132,671.378052 
	C239.179886,671.415527 237.715515,670.400146 237.548737,666.340576 
	C236.888336,650.266785 242.936569,637.529785 255.785248,628.036865 
	C258.992737,625.667053 257.330750,623.091187 256.768921,620.047729 
M196.529388,214.022156 
	C192.048538,214.189438 187.555435,214.062225 183.145569,215.221420 
	C180.440460,215.932465 179.141678,217.475983 179.455276,220.241531 
	C179.941589,224.530151 180.415085,228.823105 181.043839,233.092148 
	C183.123611,247.212738 185.394852,261.306519 187.315903,275.448181 
	C187.893875,279.702881 189.702087,281.104553 193.875565,280.642670 
	C201.462936,279.802948 209.080917,279.196106 216.699722,278.701904 
	C220.667145,278.444580 222.399612,276.864105 221.911118,272.714813 
	C219.737732,254.254227 217.662064,235.781937 215.630203,217.305176 
	C215.297012,214.275467 213.241669,214.007629 211.005783,213.985199 
	C206.510773,213.940109 202.014481,214.021408 196.529388,214.022156 
M259.712921,245.464905 
	C259.079742,238.360428 258.270905,231.290436 256.695465,224.310013 
	C255.294083,218.100708 250.753464,221.958801 247.729614,221.541077 
	C244.574539,221.105255 244.039810,223.878204 244.393997,226.375336 
	C246.093536,238.357712 247.898514,250.325134 249.665268,262.297974 
	C250.255661,266.298950 253.055954,266.230652 256.047638,265.731964 
	C259.004181,265.239136 262.371521,265.129883 261.784515,260.651398 
	C261.159821,255.885132 260.481079,251.125931 259.712921,245.464905 
M252.645416,308.558441 
	C250.657516,308.524078 248.645844,308.274902 246.685715,308.491669 
	C236.821594,309.582489 226.973587,310.818176 217.113617,311.947998 
	C214.700729,312.224457 212.149521,312.355988 212.466232,315.698883 
	C212.773819,318.945587 215.413437,318.332764 217.464218,318.129822 
	C228.655380,317.022339 239.844391,315.882568 251.017014,314.604156 
	C254.922318,314.157288 255.895569,312.114288 252.645416,308.558441 
z"/>
<path fill="#000000" opacity="1.000000" stroke="none" 
	d="
M664.146729,670.388611 
	C659.883423,670.130188 656.030884,671.001343 651.795044,669.696716 
	C651.584106,656.951416 653.405762,644.797241 662.417542,634.998535 
	C665.864563,631.250488 669.266907,627.251526 673.807983,624.612915 
	C676.001343,623.338562 675.799255,621.415283 675.264648,619.364197 
	C669.238770,596.245422 663.834778,572.977051 658.289124,549.740967 
	C656.448669,542.029724 654.737305,534.283630 652.493347,525.972351 
	C657.106323,525.518982 661.428101,524.799377 665.760620,524.727051 
	C676.252808,524.551941 686.755188,524.869873 697.242493,524.585327 
	C701.198120,524.478027 702.468323,526.344849 703.105286,529.616699 
	C706.530334,547.210815 709.941223,564.807922 713.450562,582.385315 
	C715.920288,594.755554 718.565186,607.090759 721.067566,619.454651 
	C721.510315,621.642456 722.539429,624.106140 719.251892,625.287292 
	C706.477661,629.876709 701.994202,640.671631 699.606445,652.591248 
	C698.723877,656.997009 697.633057,661.594971 699.108154,666.365601 
	C700.161011,669.770630 697.480957,670.415344 694.609802,670.399109 
	C684.614685,670.342468 674.619019,670.383850 664.146729,670.388611 
z"/>
<path fill="#000000" opacity="1.000000" stroke="none" 
	d="
M208.376587,256.605713 
	C208.642548,258.530243 208.941269,259.991638 209.129913,261.467163 
	C209.586288,265.036804 208.077591,267.572266 204.465729,267.693634 
	C201.076935,267.807526 196.703949,268.729858 195.955368,263.356964 
	C194.565887,253.384109 193.107605,243.417252 191.964081,233.415192 
	C191.371002,228.227859 193.174622,226.410553 198.236633,226.018234 
	C204.435730,225.537735 205.308441,226.228333 205.988129,231.958679 
	C206.942673,240.006424 208.642349,247.980148 208.376587,256.605713 
z"/>
</svg>